<?xml version="1.0" encoding="utf-8"?>
<svg xmlns="http://www.w3.org/2000/svg" width="910.91505" height="727.46554" viewBox="0 0 593.846 569.415" role="img" artist="Katerina Limpitsouni" source="https://undraw.co/">
  <path d="M428.12825,86.26723c-92.916,0-168.497,75.581-168.497,168.497a167.59284,167.59284,0,0,0,14.77387,68.98941c26.40679,58.61,85.36724,99.5076,153.72314,99.5076a168.59048,168.59048,0,0,0,168.497-168.497C596.62532,161.84831,521.03078,86.26723,428.12825,86.26723ZM567.5359,322.5A155.17518,155.17518,0,0,1,428.12825,409.7815c-65.68683,0-121.96484-41.07287-144.48956-98.88751A153.876,153.876,0,0,1,273.111,254.76423C273.111,169.289,342.65309,99.747,428.12825,99.747s155.01721,69.542,155.01721,155.01724A153.93514,153.93514,0,0,1,567.5359,322.5Z" transform="translate(-144.54248 -86.26723)" fill="#e6e6e6"/>
  <path d="M428.12848,423.76109A169.20025,169.20025,0,0,1,275.59174,327.495a7.2787,7.2787,0,0,1,.54761-7.2334l.09033-.13233a7.17286,7.17286,0,0,1,12.37878.99024c25.5636,53.55615,80.32837,88.16211,139.51978,88.16211a155.14522,155.14522,0,0,0,133.61865-76.97608,7.17631,7.17631,0,0,1,6.259-3.58789,7.04924,7.04924,0,0,1,6.16211,3.59229l.07861.13818a7.26593,7.26593,0,0,1-.03808,7.22168A169.6463,169.6463,0,0,1,428.12848,423.76109Z" transform="translate(-144.54248 -86.26723)" fill="#84AD40"/>
  <path d="M390.15022,270.1757a19.77648,19.77648,0,1,1-13.87091,5.80713,19.51462,19.51462,0,0,1,13.87091-5.80713m0-8.42487A28.08785,28.08785,0,1,0,418.223,289.85374a28.08787,28.08787,0,0,0-28.07282-28.10291Zm58.52265-40.16848a9.58,9.58,0,0,0,9.62841-9.53122q.00028-.0486,0-.09719a9.47824,9.47824,0,0,0-9.38745-9.56822q-.09036-.00087-.18078,0a9.59855,9.59855,0,0,0-.181,19.19625Q448.6125,221.58254,448.67287,221.58235Zm20.12939,48.59332a19.7765,19.7765,0,1,1-13.87091,5.80713,19.51462,19.51462,0,0,1,13.87091-5.80713m0-8.42484a28.07282,28.07282,0,1,0,28.07282,28.07282,28.07281,28.07281,0,0,0-28.07282-28.07282Z" transform="translate(-144.54248 -86.26723)" style="fill: rgb(108, 99, 255);"/>
  <path d="M463.17561,240.8993H448.73305L439.85689,222.816A9.41355,9.41355,0,0,0,424.963,220.8301L403.3893,241.62147a9.79742,9.79742,0,0,0-2.79828,6.73987c0,5.23544,3.7912,7.101,5.5664,8.15405,13.69037,7.88324,18.50458,8.75583,18.50458,12.69745V289.0413a4.81421,4.81421,0,0,0,9.62842,0h0V261.96147c0-3.97171-9.147-7.22132-14.5329-11.43372l14.71344-15.4957c5.62659,8.57529,8.21424,15.4957,11.43372,15.4957h17.27093a4.8142,4.8142,0,1,0,.01551-9.62839h-.01551Z" transform="translate(-144.54248 -86.26723)" style="fill: rgb(108, 99, 255);"/>
  <path d="M292.59863,514.12375c-4.14722,0-7.58081,12.07434-8.24628,27.90612H204.56891c-.6655-15.83184-4.09906-27.90612-8.24631-27.90612-4.62354,0-8.37183,14.99285-8.37183,33.48736s3.74829,33.48724,8.37183,33.48724c4.14725,0,7.58081-12.07434,8.24631-27.90612h79.78338c.66547,15.83184,4.09906,27.90612,8.24628,27.90612,4.62353,0,8.37182-14.99285,8.37182-33.48724S297.22216,514.12375,292.59863,514.12375Z" transform="translate(-144.54248 -86.26723)" style="fill: rgb(108, 99, 255);"/>
  <path d="M331.46167,498.16922a99.77255,99.77255,0,1,0,12.644,48.581A99.7726,99.7726,0,0,0,331.46167,498.16922Zm-87.1601,140.39166a91.35849,91.35849,0,1,1,.92169.00006Q244.76239,638.56324,244.30157,638.56088Z" transform="translate(-144.54248 -86.26723)" fill="#e6e6e6"/>
  <path d="M244.35028,647.05455a100.09561,100.09561,0,0,1-53.6969-15.5918,4.48982,4.48982,0,0,1-1.76721-2.14941l-.05029-.12989a4.40313,4.40313,0,0,1,1.34607-5.06738,4.34494,4.34494,0,0,1,5.166-.31592A91.26948,91.26948,0,0,0,324.549,503.223a4.34957,4.34957,0,0,1,.67261-5.13378,4.40914,4.40914,0,0,1,5.15393-.99122l.12512.0586a4.4564,4.4564,0,0,1,2.0149,1.88818A100.267,100.267,0,0,1,244.397,647.05455Z" transform="translate(-144.54248 -86.26723)" fill="#84AD40"/>
  <path d="M611.9087,446.96406a99.80413,99.80413,0,1,0-.03625,199.60825h.03625c.647,0,1.28052,0,1.92761-.02692A99.79994,99.79994,0,0,0,611.9087,446.964ZM632.24964,636.3007A91.81821,91.81821,0,1,1,611.85475,454.944h.054A91.81841,91.81841,0,0,1,632.24964,636.3007Z" transform="translate(-144.54248 -86.26723)" fill="#e6e6e6"/>
  <path d="M611.90875,647.07213a100.30546,100.30546,0,0,1-21.23632-198.33692,4.59848,4.59848,0,0,1,1.80786-.02344l.20825.03955a4.44178,4.44178,0,0,1,.10132,8.7002A91.32829,91.32829,0,0,0,611.92243,638.079c.88208-.0083,1.7395-.01221,2.61035-.0376a4.13764,4.13764,0,0,1,4.21216,3.24219,4.00259,4.00259,0,0,1-2.272,4.63818v.00049q-.88146.40429-1.7705.793a4.10692,4.10692,0,0,1-1.584.35059C612.71613,647.07213,612.315,647.07213,611.90875,647.07213Z" transform="translate(-144.54248 -86.26723)" fill="#84AD40"/>
  <path d="M661.145,542.52488a12.19813,12.19813,0,0,0-12.17865,8.31281h-9.82886l-7.17578-21.578a4.04334,4.04334,0,0,0-3.84058-2.77936h-.0758a3.99554,3.99554,0,0,0-3.79,2.931l-11.24377,39.2395-13.2146-79.3634a4.05669,4.05669,0,0,0-7.93384-.32846l-13.39154,61.87869H563.463a4.04272,4.04272,0,0,0,0,8.08545h18.1922a4.02974,4.02974,0,0,0,3.91638-3.05731l9.44983-46.03638,12.96192,77.79688a4.01359,4.01359,0,0,0,3.76477,3.36047h.22742a4.05538,4.05538,0,0,0,3.89111-2.931l12.55768-43.8634,3.96685,11.95135a4.07645,4.07645,0,0,0,3.84058,2.77936H649.1432a12.13065,12.13065,0,1,0,12.00177-16.3982Z" transform="translate(-144.54248 -86.26723)" style="fill: rgb(108, 99, 255);"/>
</svg>