<?xml version="1.0" encoding="utf-8"?>
<svg xmlns="http://www.w3.org/2000/svg" width="888" height="618.10603" viewBox="0 294.945 889.648 323.161" role="img" artist="Katerina Limpitsouni" source="https://undraw.co/">
  <rect x="301.94089" y="206.06748" width="1.00054" height="8.33965" transform="translate(-208.68499 167.04408) rotate(-50.19486)" fill="#fff"/>
  <rect x="354.73467" y="226.55581" width="20.88467" height="1.0002" transform="matrix(0.537, -0.84358, 0.84358, 0.537, -178.46379, 272.23589)" fill="#fff"/>
  <rect x="305.41177" y="216.61358" width="1.0002" height="20.88467" transform="matrix(0.84366, -0.53687, 0.53687, 0.84366, -230.07485, 58.78582)" fill="#fff"/>
  <polygon points="211.399 71.78 210.692 71.073 211.76 70.005 218.141 62.558 218.9 63.208 212.493 70.683 211.399 71.78" fill="#fff"/>
  <rect y="616.10603" width="888" height="2" fill="#3f3d56"/>
  <path d="M495,756.053H705V501.33662c0-13.4877-13.28516-24.4604-29.61426-24.4604H524.61426c-16.32959,0-29.61426,10.9727-29.61426,24.4604Z" transform="translate(-156 -140.94698)" fill="#e6e6e6"/>
  <path d="M511,745.52H689V529.6175c0-11.43243-11.26075-20.7331-25.10161-20.7331H536.10161C522.26034,508.8844,511,518.18507,511,529.6175Z" transform="translate(-156 -140.94698)" fill="#fff"/>
  <path d="M493.41357,457.053c-5.19043,0-9.41357,3.48817-9.41357,7.7753v22.44387c0,4.28712,4.22314,7.7753,9.41357,7.7753H706.58691c5.19043,0,9.41309-3.48818,9.41309-7.7753V464.82832c0-4.28713-4.22266-7.7753-9.41309-7.7753Z" transform="translate(-156 -140.94698)" fill="#3f3d56"/>
  <path d="M537.18078,717.83565a9.22367,9.22367,0,0,0-9.19666,9.19663v0a9.22369,9.22369,0,0,0,9.19666,9.19666H554.395V717.83565Z" transform="translate(-156 -140.94698)" fill="#3f3d56"/>
  <path d="M570.19444,717.83565H553.4518V736.229h16.74264a9.22369,9.22369,0,0,0,9.19666-9.19666v0A9.22367,9.22367,0,0,0,570.19444,717.83565Z" transform="translate(-156 -140.94698)" fill="#6c63ff"/>
  <path d="M576.19558,720.08792a9.1437,9.1437,0,0,1,2.25227,6.00111v0a9.22369,9.22369,0,0,1-9.19666,9.19666H553.4518v.94325h16.74264a9.22369,9.22369,0,0,0,9.19666-9.19666v0A9.1765,9.1765,0,0,0,576.19558,720.08792Z" transform="translate(-156 -140.94698)" opacity="0.2"/>
  <path d="M614.86141,579.30953a9.22367,9.22367,0,0,0-13.00036-.38384l0,0a9.22369,9.22369,0,0,0-.38382,13.00038l11.8078,12.52624,13.3842-12.61656Z" transform="translate(-156 -140.94698)" fill="#3f3d56"/>
  <path d="M637.50651,603.33246l-11.4843-12.18306L612.638,603.766l11.4843,12.18305a9.2237,9.2237,0,0,0,13.00038.38383l0,0A9.22366,9.22366,0,0,0,637.50651,603.33246Z" transform="translate(-156 -140.94698)" fill="#6c63ff"/>
  <path d="M639.984,609.24419a9.14368,9.14368,0,0,1-2.8219,5.75525l0,0a9.22369,9.22369,0,0,1-13.00038-.38382L613.32438,603.119l-.68637.647,11.4843,12.18305a9.2237,9.2237,0,0,0,13.00038.38383l0,0A9.17654,9.17654,0,0,0,639.984,609.24419Z" transform="translate(-156 -140.94698)" opacity="0.2"/>
  <path d="M565.86141,608.30953a9.22367,9.22367,0,0,0-13.00036-.38384l0,0a9.22369,9.22369,0,0,0-.38382,13.00038l11.8078,12.52624,13.3842-12.61656Z" transform="translate(-156 -140.94698)" fill="#3f3d56"/>
  <path d="M588.50651,632.33246l-11.4843-12.18306L563.638,632.766l11.4843,12.18305a9.2237,9.2237,0,0,0,13.00038.38383l0,0A9.22366,9.22366,0,0,0,588.50651,632.33246Z" transform="translate(-156 -140.94698)" fill="#6c63ff"/>
  <path d="M590.984,638.24419a9.14368,9.14368,0,0,1-2.8219,5.75525l0,0a9.22369,9.22369,0,0,1-13.00038-.38382L564.32438,632.119l-.68637.647,11.4843,12.18305a9.2237,9.2237,0,0,0,13.00038.38383l0,0A9.17654,9.17654,0,0,0,590.984,638.24419Z" transform="translate(-156 -140.94698)" opacity="0.2"/>
  <path d="M614.86141,635.30953a9.22367,9.22367,0,0,0-13.00036-.38384l0,0a9.22369,9.22369,0,0,0-.38382,13.00038l11.8078,12.52624,13.3842-12.61656Z" transform="translate(-156 -140.94698)" fill="#3f3d56"/>
  <path d="M637.50651,659.33246l-11.4843-12.18306L612.638,659.766l11.4843,12.18305a9.2237,9.2237,0,0,0,13.00038.38383l0,0A9.22366,9.22366,0,0,0,637.50651,659.33246Z" transform="translate(-156 -140.94698)" fill="#6c63ff"/>
  <path d="M639.984,665.24419a9.14368,9.14368,0,0,1-2.8219,5.75525l0,0a9.22369,9.22369,0,0,1-13.00038-.38382L613.32438,659.119l-.68637.647,11.4843,12.18305a9.2237,9.2237,0,0,0,13.00038.38383l0,0A9.17654,9.17654,0,0,0,639.984,665.24419Z" transform="translate(-156 -140.94698)" opacity="0.2"/>
  <path d="M644.754,692.77653a9.22367,9.22367,0,0,0,.22582-13.00406l0,0a9.22369,9.22369,0,0,0-13.00408-.22581L619.59388,691.5058l12.77828,13.22989Z" transform="translate(-156 -140.94698)" fill="#3f3d56"/>
  <path d="M621.008,715.7119l12.04259-11.63151L620.27234,690.8505,608.22974,702.482a9.2237,9.2237,0,0,0-.2258,13.00409l0,0A9.22367,9.22367,0,0,0,621.008,715.7119Z" transform="translate(-156 -140.94698)" fill="#6c63ff"/>
  <path d="M615.12683,718.261a9.14377,9.14377,0,0,1-5.78912-2.75175l0,0a9.22369,9.22369,0,0,1,.2258-13.00408L620.92763,691.529l-.65529-.67846L608.22974,702.482a9.2237,9.2237,0,0,0-.2258,13.00409l0,0A9.17651,9.17651,0,0,0,615.12683,718.261Z" transform="translate(-156 -140.94698)" opacity="0.2"/>
  <path d="M578.754,663.77653a9.22367,9.22367,0,0,0,.22582-13.00406l0,0a9.22369,9.22369,0,0,0-13.00408-.22581L553.59388,662.5058l12.77828,13.22989Z" transform="translate(-156 -140.94698)" fill="#3f3d56"/>
  <path d="M555.008,686.7119l12.04259-11.63151L554.27234,661.8505,542.22974,673.482a9.2237,9.2237,0,0,0-.2258,13.00409l0,0A9.22367,9.22367,0,0,0,555.008,686.7119Z" transform="translate(-156 -140.94698)" fill="#6c63ff"/>
  <path d="M549.12683,689.261a9.14377,9.14377,0,0,1-5.78912-2.75175l0,0a9.22369,9.22369,0,0,1,.2258-13.00408L554.92763,662.529l-.65529-.67846L542.22974,673.482a9.2237,9.2237,0,0,0-.2258,13.00409l0,0A9.17651,9.17651,0,0,0,549.12683,689.261Z" transform="translate(-156 -140.94698)" opacity="0.2"/>
  <path d="M672.754,628.77653a9.22367,9.22367,0,0,0,.22582-13.00406l0,0a9.22369,9.22369,0,0,0-13.00408-.22581L647.59388,627.5058l12.77828,13.22989Z" transform="translate(-156 -140.94698)" fill="#3f3d56"/>
  <path d="M649.008,651.7119l12.04259-11.63151L648.27234,626.8505,636.22974,638.482a9.2237,9.2237,0,0,0-.2258,13.00409l0,0A9.22367,9.22367,0,0,0,649.008,651.7119Z" transform="translate(-156 -140.94698)" fill="#6c63ff"/>
  <path d="M643.12683,654.261a9.14377,9.14377,0,0,1-5.78912-2.75175l0,0a9.22369,9.22369,0,0,1,.2258-13.00408L648.92763,627.529l-.65529-.67846L636.22974,638.482a9.2237,9.2237,0,0,0-.2258,13.00409l0,0A9.17651,9.17651,0,0,0,643.12683,654.261Z" transform="translate(-156 -140.94698)" opacity="0.2"/>
  <path d="M651.86141,701.30953a9.22367,9.22367,0,0,0-13.00036-.38384l0,0a9.22369,9.22369,0,0,0-.38382,13.00038l11.8078,12.52624,13.3842-12.61656Z" transform="translate(-156 -140.94698)" fill="#3f3d56"/>
  <path d="M674.50651,725.33246l-11.4843-12.18306L649.638,725.766l11.4843,12.18305a9.2237,9.2237,0,0,0,13.00038.38383l0,0A9.22366,9.22366,0,0,0,674.50651,725.33246Z" transform="translate(-156 -140.94698)" fill="#6c63ff"/>
  <path d="M676.984,731.24419a9.14368,9.14368,0,0,1-2.8219,5.75525l0,0a9.22369,9.22369,0,0,1-13.00038-.38382L650.32438,725.119l-.68637.647,11.4843,12.18305a9.2237,9.2237,0,0,0,13.00038.38383l0,0A9.17654,9.17654,0,0,0,676.984,731.24419Z" transform="translate(-156 -140.94698)" opacity="0.2"/>
  <path d="M586.86141,700.30953a9.22367,9.22367,0,0,0-13.00036-.38384l0,0a9.22369,9.22369,0,0,0-.38382,13.00038l11.8078,12.52624,13.3842-12.61656Z" transform="translate(-156 -140.94698)" fill="#3f3d56"/>
  <path d="M609.50651,724.33246l-11.4843-12.18306L584.638,724.766l11.4843,12.18305a9.2237,9.2237,0,0,0,13.00038.38383l0,0A9.22366,9.22366,0,0,0,609.50651,724.33246Z" transform="translate(-156 -140.94698)" fill="#6c63ff"/>
  <path d="M611.984,730.24419a9.14368,9.14368,0,0,1-2.8219,5.75525l0,0a9.22369,9.22369,0,0,1-13.00038-.38382L585.32438,724.119l-.68637.647,11.4843,12.18305a9.2237,9.2237,0,0,0,13.00038.38383l0,0A9.17654,9.17654,0,0,0,611.984,730.24419Z" transform="translate(-156 -140.94698)" opacity="0.2"/>
  <path d="M605.15789,667.31618A13.26311,13.26311,0,0,1,594.54737,680.314a13.39494,13.39494,0,0,1-5.30526,0,13.26647,13.26647,0,0,1,0-25.99579,13.39692,13.39692,0,0,1,5.30526,0A13.26319,13.26319,0,0,1,605.15789,667.31618Z" transform="translate(-156 -140.94698)" fill="#6c63ff"/>
  <path d="M594.54737,654.31826V680.314a13.39494,13.39494,0,0,1-5.30526,0V654.31826a13.39692,13.39692,0,0,1,5.30526,0Z" transform="translate(-156 -140.94698)" opacity="0.2"/>
  <path d="M611.15789,614.31618A13.26311,13.26311,0,0,1,600.54737,627.314a13.39494,13.39494,0,0,1-5.30526,0,13.26647,13.26647,0,0,1,0-25.99579,13.39692,13.39692,0,0,1,5.30526,0A13.26319,13.26319,0,0,1,611.15789,614.31618Z" transform="translate(-156 -140.94698)" fill="#6c63ff"/>
  <path d="M600.54737,601.31826V627.314a13.39494,13.39494,0,0,1-5.30526,0V601.31826a13.39692,13.39692,0,0,1,5.30526,0Z" transform="translate(-156 -140.94698)" opacity="0.2"/>
  <path d="M611.15789,690.31618A13.26311,13.26311,0,0,1,600.54737,703.314a13.39494,13.39494,0,0,1-5.30526,0,13.26647,13.26647,0,0,1,0-25.99579,13.39692,13.39692,0,0,1,5.30526,0A13.26319,13.26319,0,0,1,611.15789,690.31618Z" transform="translate(-156 -140.94698)" fill="#6c63ff"/>
  <path d="M600.54737,677.31826V703.314a13.39494,13.39494,0,0,1-5.30526,0V677.31826a13.39692,13.39692,0,0,1,5.30526,0Z" transform="translate(-156 -140.94698)" opacity="0.2"/>
  <path d="M644.15789,727.31618A13.26311,13.26311,0,0,1,633.54737,740.314a13.39494,13.39494,0,0,1-5.30526,0,13.26647,13.26647,0,0,1,0-25.99579,13.39692,13.39692,0,0,1,5.30526,0A13.26319,13.26319,0,0,1,644.15789,727.31618Z" transform="translate(-156 -140.94698)" fill="#6c63ff"/>
  <path d="M633.54737,714.31826V740.314a13.39494,13.39494,0,0,1-5.30526,0V714.31826a13.39692,13.39692,0,0,1,5.30526,0Z" transform="translate(-156 -140.94698)" opacity="0.2"/>
  <path d="M673.30955,659.24039a13.26311,13.26311,0,0,1,1.995,16.65977,13.3949,13.3949,0,0,1-3.68171,3.81979,13.26649,13.26649,0,0,1-18.717-18.04042,13.397,13.397,0,0,1,3.68172-3.81978A13.26318,13.26318,0,0,1,673.30955,659.24039Z" transform="translate(-156 -140.94698)" fill="#6c63ff"/>
  <path d="M656.58762,657.85975l18.717,18.04041a13.3949,13.3949,0,0,1-3.68171,3.81979l-18.717-18.04042a13.397,13.397,0,0,1,3.68172-3.81978Z" transform="translate(-156 -140.94698)" opacity="0.2"/>
  <path d="M677.30955,688.24039a13.26311,13.26311,0,0,1,1.995,16.65977,13.3949,13.3949,0,0,1-3.68171,3.81979,13.26649,13.26649,0,0,1-18.717-18.04042,13.397,13.397,0,0,1,3.68172-3.81978A13.26318,13.26318,0,0,1,677.30955,688.24039Z" transform="translate(-156 -140.94698)" fill="#6c63ff"/>
  <path d="M660.58762,686.85975l18.717,18.04041a13.3949,13.3949,0,0,1-3.68171,3.81979l-18.717-18.04042a13.397,13.397,0,0,1,3.68172-3.81978Z" transform="translate(-156 -140.94698)" opacity="0.2"/>
  <path d="M558.30955,695.24039a13.26311,13.26311,0,0,1,1.995,16.65977,13.3949,13.3949,0,0,1-3.68171,3.81979,13.26649,13.26649,0,0,1-18.717-18.04042,13.397,13.397,0,0,1,3.68172-3.81978A13.26318,13.26318,0,0,1,558.30955,695.24039Z" transform="translate(-156 -140.94698)" fill="#6c63ff"/>
  <path d="M541.58762,693.85975l18.717,18.04041a13.3949,13.3949,0,0,1-3.68171,3.81979l-18.717-18.04042a13.397,13.397,0,0,1,3.68172-3.81978Z" transform="translate(-156 -140.94698)" opacity="0.2"/>
  <rect x="354.5" y="316.10603" width="5" height="37" opacity="0.2"/>
  <rect x="383.5" y="316.10603" width="5" height="37" opacity="0.2"/>
  <rect x="412.5" y="316.10603" width="5" height="37" opacity="0.2"/>
  <rect x="441.5" y="316.10603" width="5" height="37" opacity="0.2"/>
  <rect x="470.5" y="316.10603" width="5" height="37" opacity="0.2"/>
  <rect x="499.5" y="316.10603" width="5" height="37" opacity="0.2"/>
  <rect x="528.5" y="316.10603" width="5" height="37" opacity="0.2"/>
</svg>